<svg width="25" height="24" viewBox="0 0 25 24" fill="none" xmlns="http://www.w3.org/2000/svg">
<path d="M16.8263 6.00898L13.8263 6.00915C13.274 6.00918 12.8264 6.45693 12.8264 7.00921L12.8266 10.0092L16.8266 10.009C16.9403 10.0065 17.0482 10.0594 17.1158 10.1509C17.1834 10.2424 17.2024 10.361 17.1666 10.469L16.4267 12.669C16.3585 12.8709 16.1698 13.0074 15.9567 13.009L12.8267 13.0092L12.8272 20.5092C12.8272 20.7853 12.6033 21.0092 12.3272 21.0092L9.8272 21.0094C9.55106 21.0094 9.32719 20.7855 9.32717 20.5094L9.32674 13.0094L7.82674 13.0095C7.5506 13.0095 7.32673 12.7856 7.32672 12.5095L7.3266 10.5095C7.32658 10.2334 7.55043 10.0095 7.82657 10.0095L9.32657 10.0094L9.3264 7.00941C9.32627 4.80027 11.1171 3.0093 13.3262 3.00918L16.8262 3.00898C17.1023 3.00896 17.3262 3.23281 17.3262 3.50895L17.3263 5.50895C17.3263 5.78509 17.1024 6.00896 16.8263 6.00898Z" fill="white" fill-opacity="0.7"/>
</svg>
