<svg width="25" height="24" viewBox="0 0 25 24" fill="none" xmlns="http://www.w3.org/2000/svg">
<path d="M16.9994 6.00026L13.9996 6.00043C13.4473 6.00047 12.9996 6.44819 12.9997 7.00043L12.9998 10.0003L16.9996 10C17.1133 9.99751 17.2212 10.0504 17.2888 10.1419C17.3564 10.2334 17.3754 10.352 17.3396 10.46L16.5998 12.6599C16.5316 12.8618 16.3429 12.9983 16.1298 12.9999L13 13.0001L13.0004 20.4997C13.0005 20.7757 12.7766 20.9996 12.5005 20.9997L10.0006 20.9998C9.72452 20.9998 9.50066 20.7759 9.50064 20.4999L9.50021 13.0003L8.0003 13.0004C7.72417 13.0004 7.50031 12.7765 7.5003 12.5004L7.50018 10.5005C7.50017 10.2245 7.724 10.0006 8.00013 10.0005L9.50004 10.0005L9.49987 7.00063C9.49974 4.79162 11.2904 3.00076 13.4994 3.00063L16.9992 3.00043C17.2753 3.00042 17.4992 3.22425 17.4992 3.50038L17.4993 5.50026C17.4993 5.77639 17.2755 6.00025 16.9994 6.00026Z" fill="#3975EA"/>
</svg>
