<svg width="57" height="25" viewBox="0 0 57 25" fill="none" xmlns="http://www.w3.org/2000/svg">
<g clip-path="url(#clip0_1592_1733)">
<path d="M10.7619 16.5139C9.65031 17.7365 8.25031 18.3364 6.53819 18.3364C5.87115 18.3364 5.13763 18.1584 4.3596 17.8029C3.58157 17.4474 3.00354 16.9579 2.62552 16.3359V18.1584H0.0474854V0.0643311H2.69256V8.04461C3.07059 7.42208 3.62608 6.93307 4.40411 6.59954C5.18214 6.24405 5.91566 6.06602 6.60467 6.06602C8.33876 6.06602 9.73932 6.68856 10.8058 7.93307C11.8954 9.17814 12.4283 10.6007 12.4283 12.1787C12.4289 13.8469 11.8734 15.2914 10.7619 16.5139ZM2.64805 12.2012C2.64805 13.2457 2.98157 14.1353 3.62608 14.8688C4.29256 15.5804 5.1596 15.9359 6.20467 15.9359C7.24918 15.9359 8.11622 15.5804 8.76073 14.8688C9.42777 14.1353 9.7613 13.2463 9.7613 12.2012C9.7613 11.1562 9.42777 10.2672 8.76073 9.53363C8.11622 8.80011 7.24918 8.44405 6.20467 8.44405C5.1596 8.44405 4.29256 8.79955 3.62608 9.53363C2.98157 10.2677 2.64805 11.1567 2.64805 12.2012Z" fill="white"/>
<path d="M16.6514 13.0018C16.6734 13.8908 17.0295 14.6243 17.7185 15.2249C18.4075 15.8029 19.2081 16.0919 20.119 16.0919C21.6086 16.0919 22.6757 15.4694 23.3202 14.2469L25.2317 15.5139C24.2312 17.359 22.2976 18.3815 20.1636 18.3815C18.4075 18.3815 16.9179 17.8035 15.7179 16.6255C14.5399 15.4474 13.9393 13.9579 13.9393 12.2018C13.9393 10.4903 14.5174 9.04519 15.6509 7.84463C16.7844 6.64407 18.2069 6.04407 19.919 6.04407C21.7196 6.04407 23.1421 6.60012 24.1647 7.73364C25.1872 8.86773 25.6988 10.3348 25.6988 12.1793C25.6988 12.5348 25.6762 12.8018 25.6543 13.0018H16.6514ZM16.7844 11.0012H23.0086C22.9196 9.33364 21.6081 8.31167 19.919 8.31167C18.2965 8.31167 17.0289 9.37871 16.7844 11.0012Z" fill="white"/>
<path d="M28.0536 1.22043C28.7426 0.50888 29.8097 0.50888 30.4987 1.22043C31.1877 1.90944 31.1877 2.97649 30.4987 3.6655C29.8097 4.35452 28.7426 4.35452 28.0536 3.6655C27.3646 2.97649 27.3646 1.90944 28.0536 1.22043ZM30.6097 18.159H27.9646V6.2886H30.6097V18.159Z" fill="white"/>
<path d="M36.5224 6.28858V19.5596C36.5224 22.5607 35.0774 24.0503 32.2098 24.0503C31.7872 24.0503 31.3872 23.9838 31.0098 23.8722V21.5601C31.2098 21.6266 31.4323 21.6491 31.6762 21.6491C33.2548 21.6491 33.8548 21.0486 33.8548 19.2706V6.28858H36.5224ZM36.945 2.44295C36.945 3.399 36.145 4.17647 35.1664 4.17647C34.2103 4.17647 33.4323 3.39844 33.4323 2.44295C33.4323 1.48689 34.2103 0.68689 35.1664 0.68689C36.1444 0.68689 36.945 1.48689 36.945 2.44295Z" fill="white"/>
<path d="M41.5235 13.0018C41.5461 13.8908 41.9015 14.6243 42.5906 15.2249C43.2796 15.8029 44.0796 16.0919 44.9911 16.0919C46.4801 16.0919 47.5472 15.4694 48.1923 14.2469L50.1038 15.5139C49.1038 17.359 47.1697 18.3815 45.0356 18.3815C43.2796 18.3815 41.79 17.8035 40.59 16.6255C39.412 15.4474 38.8114 13.9579 38.8114 12.2018C38.8114 10.4903 39.3894 9.04519 40.523 7.84463C41.6565 6.64407 43.0796 6.04407 44.7911 6.04407C46.5917 6.04407 48.0142 6.60012 49.0368 7.73364C50.0593 8.86773 50.5703 10.3348 50.5703 12.1793C50.5703 12.5348 50.5483 12.8018 50.5258 13.0018H41.5235ZM41.657 11.0012H47.8813C47.7922 9.33364 46.4807 8.31167 44.7911 8.31167C43.1686 8.31167 41.9015 9.37871 41.657 11.0012Z" fill="white"/>
<path d="M56.3855 16.4801C56.3855 16.9899 55.9962 17.3657 55.6622 17.6998C55.3281 18.0339 54.9523 18.3105 54.4424 18.3105C53.9326 18.3105 53.5929 17.9978 53.2588 17.6637C52.9247 17.3297 52.6954 16.9899 52.6954 16.4801C52.6954 15.9702 52.6588 15.3646 52.9929 15.0305C53.3269 14.6964 53.9326 14.515 54.4424 14.515C54.9523 14.515 55.4103 14.844 55.7444 15.1781C56.0785 15.5122 56.3855 15.9702 56.3855 16.4801Z" fill="white"/>
</g>
<defs>
<clipPath id="clip0_1592_1733">
<rect width="56.3944" height="24" fill="white" transform="translate(-0.00598145 0.0643311)"/>
</clipPath>
</defs>
</svg>
