<svg width="32" height="32" viewBox="0 0 32 32" fill="none" xmlns="http://www.w3.org/2000/svg">
<path d="M3.18799 16.3852C3.18799 21.0301 5.5135 22.0057 7.9065 21.4412C10.2995 20.8767 13.7479 20.6436 15.9998 20.6436C18.2516 20.6436 21.7062 20.8767 24.093 21.4412C26.486 22.0057 28.8116 21.0301 28.8116 16.3852C28.8116 11.7404 26.486 10.7648 24.093 11.3293C21.7 11.8938 18.2516 12.1269 15.9998 12.1269C13.7479 12.1269 10.2934 11.8938 7.9065 11.3293C5.51963 10.7648 3.18799 11.7404 3.18799 16.3852Z" fill="#343131" stroke="#343131" stroke-width="1.125" stroke-miterlimit="10"/>
<path d="M21.1661 14.0782H10.8271C9.55294 14.0782 8.52002 15.1112 8.52002 16.3853C8.52002 17.6595 9.55294 18.6925 10.8271 18.6925H21.1661C22.4403 18.6925 23.4732 17.6595 23.4732 16.3853C23.4732 15.1112 22.4403 14.0782 21.1661 14.0782Z" fill="#F7F7F7" stroke="#F7F7F7" stroke-width="0.1" stroke-miterlimit="10"/>
</svg>
