<svg width="24" height="24" viewBox="0 0 24 24" fill="none" xmlns="http://www.w3.org/2000/svg">
<path d="M2.36414 11.5599C2.36414 12.3854 2.53408 14.2402 3.67028 15.0559C4.80648 15.8717 7.37992 15.4201 8.35588 15.3036C9.33185 15.187 9.22017 16.1436 9.35612 16.8379C9.49208 17.5323 10.1184 17.7556 10.4243 17.7556H11.9975C11.9975 17.7556 13.2648 17.7556 13.5707 17.7556C13.8766 17.7556 14.503 17.5371 14.639 16.8379C14.7749 16.1387 14.6632 15.1822 15.6392 15.3036C16.6152 15.425 19.1838 15.8717 20.3248 15.0559C21.4659 14.2402 21.6309 12.3854 21.6309 11.5599C21.6309 10.7345 21.461 8.87967 20.3248 8.06394C19.1886 7.24821 16.6152 7.69978 15.6392 7.81631C14.6632 7.93284 14.7749 6.9763 14.639 6.28196C14.503 5.58761 13.8766 5.36426 13.5707 5.36426H11.9975C11.9975 5.36426 10.7302 5.36426 10.4243 5.36426C10.1184 5.36426 9.49208 5.58276 9.35612 6.28196C9.22017 6.98116 9.33185 7.9377 8.35588 7.81631C7.37992 7.69492 4.81133 7.24821 3.67028 8.06394C2.52922 8.87967 2.36414 10.7345 2.36414 11.5599Z" stroke="#343131" stroke-width="1.5" stroke-miterlimit="10"/>
<path d="M15.28 9.90405H8.72013C7.88346 9.90405 7.2052 10.5823 7.2052 11.419V11.6957C7.2052 12.5324 7.88346 13.2107 8.72013 13.2107H15.28C16.1167 13.2107 16.7949 12.5324 16.7949 11.6957V11.419C16.7949 10.5823 16.1167 9.90405 15.28 9.90405Z" stroke="#343131" stroke-width="1.5" stroke-miterlimit="10"/>
</svg>
