<svg width="25" height="24" viewBox="0 0 25 24" fill="none" xmlns="http://www.w3.org/2000/svg">
<path fill-rule="evenodd" clip-rule="evenodd" d="M16.3284 3.00902L8.32837 3.00948C5.56695 3.00964 3.3285 5.24835 3.32866 8.00977L3.32911 16.0098C3.32927 18.7712 5.56798 21.0096 8.3294 21.0095L16.3294 21.009C19.0908 21.0089 21.3293 18.7701 21.3291 16.0087L21.3287 8.00874C21.3285 5.24732 19.0898 3.00886 16.3284 3.00902ZM19.5791 16.0088C19.5737 17.8014 18.1219 19.2534 16.3293 19.259L8.3293 19.2595C6.53665 19.2541 5.0847 17.8023 5.07911 16.0097L5.07866 8.00967C5.08404 6.21702 6.53582 4.76507 8.32847 4.75948L16.3285 4.75902C18.1211 4.76441 19.5731 6.21619 19.5787 8.00884L19.5791 16.0088ZM17.0787 8.25898C17.631 8.25895 18.0786 7.8112 18.0786 7.25892C18.0786 6.70664 17.6309 6.25895 17.0786 6.25898C16.5263 6.25901 16.0786 6.70676 16.0786 7.25904C16.0786 7.81132 16.5264 8.25901 17.0787 8.25898ZM12.3286 7.50925C9.84335 7.50939 7.82874 9.52423 7.82888 12.0095C7.82903 14.4948 9.84386 16.5094 12.3291 16.5093C14.8144 16.5091 16.829 14.4943 16.8289 12.009C16.8315 10.8147 16.3581 9.66859 15.5136 8.82415C14.6691 7.97971 13.5229 7.50652 12.3286 7.50925ZM9.57888 12.0094C9.57897 13.5282 10.8102 14.7593 12.329 14.7593C13.8478 14.7592 15.079 13.5279 15.0789 12.0091C15.0788 10.4903 13.8475 9.25916 12.3287 9.25925C10.8099 9.25934 9.5788 10.4906 9.57888 12.0094Z" fill="white" fill-opacity="0.7"/>
</svg>
