<svg width="22" height="12" viewBox="0 0 22 12" fill="none" xmlns="http://www.w3.org/2000/svg">
<path d="M19.7006 2.30053C18.3094 1.65273 14.4065 1.06201 10.9999 1.06201C7.59335 1.06201 3.6904 1.65273 2.29923 2.30053C1.44542 2.69889 0.965156 3.50679 1.07809 4.35811C1.1935 5.23426 1.89218 5.88951 2.90112 6.06573C5.06667 6.44424 7.78447 8.54774 8.69412 9.53806C9.11358 9.99475 10.0394 10.6711 11.0024 10.6711C11.9654 10.6711 12.8862 9.99599 13.3057 9.53806C14.2141 8.54774 16.9331 6.44424 19.0987 6.06573C20.1076 5.88951 20.8063 5.2355 20.9217 4.35811C21.0347 3.50555 20.5544 2.69765 19.7006 2.30053V2.30053Z" stroke="#343131" stroke-width="1.5" stroke-miterlimit="10"/>
<path d="M10 3.20635V7.11559C10 7.38373 9.48697 8.03292 8.71742 7.34139C7.94787 6.64987 5.77603 5.28093 4.01462 5.0269C2.77859 4.84892 2.68073 3.77086 3.6726 3.38981C4.66446 3.00877 8.35735 2.59479 9.28175 2.65595C9.91449 2.69829 10 3.02288 10 3.20635Z" stroke="#343131" stroke-width="1.5" stroke-miterlimit="10"/>
<path d="M12 3.20635V7.11559C12 7.38373 12.513 8.03292 13.2826 7.34139C14.0521 6.64987 16.224 5.28093 17.9854 5.0269C19.2214 4.84892 19.3193 3.77086 18.3274 3.38981C17.3355 3.00877 13.6427 2.59479 12.7182 2.65595C12.0855 2.69829 12 3.02288 12 3.20635Z" stroke="#343131" stroke-width="1.5" stroke-miterlimit="10"/>
</svg>
