<svg width="16" height="22" viewBox="0 0 16 22" fill="none" xmlns="http://www.w3.org/2000/svg">
<path d="M7.661 20.9957C7.96725 20.9957 8.3373 20.7916 8.3373 20.3194C8.3373 19.8473 8.3373 14.7941 8.3373 14.7941C8.3373 14.7941 12.225 12.4249 13.1225 9.88983C13.8881 7.72905 13.5181 5.0621 13.4798 4.41131C13.4458 3.82008 13.3735 2.95661 13.6797 2.67588C14.0498 2.58656 14.3262 2.25053 14.3262 1.8507C14.3262 1.38282 13.9477 1 13.4798 1H7.66525H1.8507C1.37856 1 1 1.37856 1 1.8507C1 2.25053 1.27648 2.58231 1.64653 2.67588C1.95279 2.95661 1.88048 3.81582 1.84645 4.41131C1.80817 5.0621 1.43811 7.72905 2.20374 9.89409C3.10123 12.4334 6.98894 14.7984 6.98894 14.7984V20.3237C6.98894 20.7958 7.359 21 7.66525 21L7.661 20.9957Z" stroke="#343131" stroke-width="1.5" stroke-linecap="round" stroke-linejoin="round"/>
</svg>
