<svg width="25" height="24" viewBox="0 0 25 24" fill="none" xmlns="http://www.w3.org/2000/svg">
<path fill-rule="evenodd" clip-rule="evenodd" d="M5.33301 3.00965L19.333 3.00885C20.4376 3.00879 21.3331 3.90417 21.3331 5.00874L21.3339 19.0087C21.334 20.1133 20.4386 21.0088 19.334 21.0089L5.33404 21.0097C4.22947 21.0097 3.33399 20.1144 3.33392 19.0098L3.33312 5.00977C3.33306 3.9052 4.22844 3.00971 5.33301 3.00965ZM8.33387 18.0095C8.61001 18.0095 8.83385 17.7856 8.83384 17.5095L8.83344 10.5095C8.83342 10.2334 8.60955 10.0095 8.33341 10.0095L6.83341 10.0096C6.55727 10.0096 6.33342 10.2335 6.33344 10.5096L6.33384 17.5096C6.33385 17.7857 6.55773 18.0096 6.83387 18.0096L8.33387 18.0095ZM7.58335 9.00952C6.75492 9.00957 6.08331 8.33804 6.08327 7.50961C6.08322 6.68118 6.75475 6.00957 7.58318 6.00952C8.41161 6.00948 9.08322 6.68101 9.08327 7.50944C9.08331 8.33787 8.41178 9.00948 7.58335 9.00952ZM17.8339 18.0089C18.11 18.0089 18.3339 17.785 18.3338 17.5089L18.3336 12.9089C18.366 11.3197 17.191 9.96349 15.6134 9.76906C14.5104 9.66838 13.4417 10.1836 12.8335 11.1092L12.8334 10.5092C12.8334 10.2331 12.6095 10.0092 12.3334 10.0093L10.8334 10.0093C10.5573 10.0094 10.3334 10.2333 10.3334 10.5094L10.3338 17.5094C10.3339 17.7855 10.5578 18.0094 10.8339 18.0093L12.3339 18.0093C12.61 18.0092 12.8339 17.7853 12.8338 17.5092L12.8336 13.7592C12.8336 12.9308 13.5051 12.2592 14.3335 12.2591C15.1619 12.2591 15.8336 12.9307 15.8336 13.7591L15.8338 17.5091C15.8339 17.7852 16.0578 18.009 16.3339 18.009L17.8339 18.0089Z" fill="white" fill-opacity="0.7"/>
</svg>
