<svg width="48" height="20" viewBox="0 0 48 20" fill="none" xmlns="http://www.w3.org/2000/svg">
<path d="M0 0.5H44C46.2091 0.5 48 2.29086 48 4.5V15.5C48 17.7091 46.2091 19.5 44 19.5H0V0.5Z" fill="#A2557C"/>
<path d="M26.2704 7.87354H34.209C34.3786 7.87354 34.516 8.01096 34.516 8.18055V10.4437C34.516 10.6133 34.3786 10.7507 34.209 10.7507H26.2704C25.4751 10.7507 24.8318 10.1075 24.8318 9.31213C24.8318 8.51681 25.4751 7.87354 26.2704 7.87354Z" stroke="white" stroke-width="0.833333" stroke-miterlimit="10"/>
<path d="M34.5159 9.31213H35.6094C36.4486 9.31213 37.127 9.99342 37.127 10.8297C37.127 11.6659 37.8083 12.3472 38.6445 12.3472C39.4808 12.3472 40.1621 11.6659 40.1621 10.8297" stroke="white" stroke-width="0.833333" stroke-miterlimit="10"/>
</svg>
