<svg width="22" height="21" viewBox="0 0 22 21" fill="none" xmlns="http://www.w3.org/2000/svg">
<path d="M18 9L3.99997 9M18 9L19.8641 12.1069C20.2819 12.8032 20.4908 13.1514 20.5993 13.5262C20.6954 13.8582 20.7334 14.2045 20.7116 14.5495C20.687 14.9389 20.5586 15.324 20.3018 16.0944L20.094 16.7179C19.7006 17.8981 19.5039 18.4882 19.139 18.9245C18.8168 19.3098 18.4031 19.608 17.9357 19.7918C17.4064 20 16.7844 20 15.5403 20L6.45961 20C5.21554 20 4.5935 20 4.06423 19.7918C3.59684 19.608 3.18309 19.3098 2.8609 18.9245C2.49605 18.4882 2.29934 17.8981 1.90593 16.7179L1.6981 16.0944C1.44131 15.324 1.31292 14.9389 1.28832 14.5495C1.26652 14.2044 1.30452 13.8582 1.40065 13.5261C1.50914 13.1514 1.71803 12.8032 2.13581 12.1069L3.99997 9M18 9L18.4172 7.53955C18.6151 6.84717 18.714 6.50097 18.6363 6.22708C18.5682 5.98715 18.4129 5.78132 18.2009 5.64996C17.9589 5.5 17.5989 5.5 16.8788 5.5L5.12113 5.5C4.40104 5.5 4.04099 5.5 3.79898 5.64996C3.58699 5.78132 3.43173 5.98715 3.36366 6.22708C3.28596 6.50097 3.38487 6.84717 3.5827 7.53955L3.99997 9M11 5.5H7.46425C6.94329 5.5 6.44367 5.28929 6.07529 4.91421C5.70692 4.53914 5.49997 4.03043 5.49997 3.5C5.49997 2.96957 5.70692 2.46086 6.07529 2.08579C6.44367 1.71071 6.94329 1.5 7.46425 1.5C10.2143 1.5 11 5.5 11 5.5ZM11 5.5H14.5357C15.0566 5.5 15.5563 5.28929 15.9246 4.91421C16.293 4.53914 16.5 4.03043 16.5 3.5C16.5 2.96957 16.293 2.46086 15.9246 2.08579C15.5563 1.71071 15.0566 1.5 14.5357 1.5C11.7857 1.5 11 5.5 11 5.5Z" stroke="#343131" stroke-width="1.5" stroke-linecap="round" stroke-linejoin="round"/>
</svg>
