<svg width="22" height="10" viewBox="0 0 22 10" fill="none" xmlns="http://www.w3.org/2000/svg">
<path d="M1.39111 5.28897C1.39111 8.77263 3.13525 9.50434 4.93 9.08096C6.72475 8.65758 9.31104 8.48271 10.9999 8.48271C12.6889 8.48271 15.2797 8.65758 17.0699 9.08096C18.8647 9.50434 20.6088 8.77263 20.6088 5.28897C20.6088 1.8053 18.8647 1.0736 17.0699 1.49697C15.2751 1.92035 12.6889 2.09523 10.9999 2.09523C9.31104 2.09523 6.72015 1.92035 4.93 1.49697C3.13985 1.0736 1.39111 1.8053 1.39111 5.28897Z" stroke="#343131" stroke-width="1.5" stroke-miterlimit="10"/>
<path d="M14.8748 3.55859H7.12059C6.16495 3.55859 5.39026 4.33329 5.39026 5.28892C5.39026 6.24455 6.16495 7.01925 7.12059 7.01925H14.8748C15.8305 7.01925 16.6052 6.24455 16.6052 5.28892C16.6052 4.33329 15.8305 3.55859 14.8748 3.55859Z" stroke="#343131" stroke-width="1.5" stroke-miterlimit="10"/>
</svg>
