<svg width="21" height="22" viewBox="0 0 21 22" fill="none" xmlns="http://www.w3.org/2000/svg">
<path d="M14.8002 8V5C14.8002 2.79086 13.0093 1 10.8002 1C8.59104 1 6.80017 2.79086 6.80017 5V8M2.39218 9.35196L1.79218 15.752C1.62158 17.5717 1.53628 18.4815 1.83822 19.1843C2.10347 19.8016 2.56829 20.3121 3.15819 20.6338C3.8297 21 4.74354 21 6.57122 21H15.0291C16.8568 21 17.7706 21 18.4422 20.6338C19.0321 20.3121 19.4969 19.8016 19.7621 19.1843C20.0641 18.4815 19.9788 17.5717 19.8082 15.752L19.2082 9.35197C19.0641 7.81535 18.9921 7.04704 18.6465 6.46616C18.3422 5.95458 17.8925 5.54511 17.3548 5.28984C16.7442 5 15.9725 5 14.4291 5L7.17122 5C5.62786 5 4.85619 5 4.24559 5.28984C3.70784 5.54511 3.25818 5.95458 2.95383 6.46616C2.60826 7.04704 2.53624 7.81534 2.39218 9.35196Z" stroke="#343131" stroke-width="1.5" stroke-linecap="round" stroke-linejoin="round"/>
</svg>
