<svg width="25" height="24" viewBox="0 0 25 24" fill="none" xmlns="http://www.w3.org/2000/svg">
<path d="M12.8215 2.94617C7.8509 2.94617 3.82129 6.97567 3.82129 11.9462C3.82129 16.917 7.8509 20.9462 12.8215 20.9462C17.7925 20.9462 21.8217 16.917 21.8217 11.9462C21.8217 6.976 17.7925 2.9466 12.8213 2.9466L12.8215 2.94617ZM16.9489 15.9268C16.7877 16.1912 16.4416 16.275 16.1772 16.1128C14.0641 14.822 11.4039 14.5297 8.27102 15.2454C7.96912 15.3142 7.6682 15.1251 7.59942 14.8231C7.53031 14.5211 7.71871 14.2201 8.02136 14.1514C11.4498 13.3678 14.3906 13.7053 16.7629 15.1552C17.0273 15.3175 17.1112 15.6624 16.9489 15.9268ZM18.0505 13.4759C17.8473 13.8064 17.4153 13.9106 17.0854 13.7075C14.6661 12.2202 10.9784 11.7895 8.1169 12.6581C7.74579 12.7702 7.35384 12.5611 7.24121 12.1906C7.12943 11.8195 7.33869 11.4283 7.70915 11.3155C10.9777 10.3237 15.0412 10.8041 17.8194 12.5113C18.1493 12.7144 18.2536 13.1465 18.0505 13.476V13.4759ZM18.145 10.924C15.2443 9.20113 10.4585 9.04271 7.68905 9.88327C7.24432 10.0181 6.77402 9.76709 6.63925 9.32236C6.50447 8.87742 6.75532 8.40744 7.20037 8.27224C10.3795 7.30712 15.6646 7.49359 19.0042 9.47616C19.4051 9.71356 19.5362 10.2302 19.2987 10.6297C19.0622 11.0297 18.5442 11.1616 18.1455 10.924H18.145Z" fill="white" fill-opacity="0.7"/>
</svg>
