<svg width="48" height="21" viewBox="0 0 48 21" fill="none" xmlns="http://www.w3.org/2000/svg">
<path d="M0 0.5H44C46.2091 0.5 48 2.29086 48 4.5V15.5C48 17.7091 46.2091 19.5 44 19.5H0V0.5Z" fill="#EF4E25"/>
<path d="M23.4702 10.1332C23.4702 10.821 23.6118 12.3667 24.5587 13.0465C25.5055 13.7263 27.65 13.35 28.4633 13.2528C29.2766 13.1557 29.1836 13.9529 29.2969 14.5315C29.4102 15.1101 29.9321 15.2962 30.1871 15.2962H31.4981C31.4981 15.2962 32.5541 15.2962 32.8091 15.2962C33.064 15.2962 33.5859 15.1141 33.6992 14.5315C33.8125 13.9488 33.7195 13.1517 34.5328 13.2528C35.3461 13.354 37.4866 13.7263 38.4374 13.0465C39.3883 12.3667 39.5259 10.821 39.5259 10.1332C39.5259 9.44529 39.3843 7.89961 38.4374 7.21983C37.4906 6.54005 35.3461 6.91636 34.5328 7.01347C33.7195 7.11058 33.8125 6.31346 33.6992 5.73484C33.5859 5.15622 33.064 4.97009 32.8091 4.97009H31.4981C31.4981 4.97009 30.442 4.97009 30.1871 4.97009C29.9321 4.97009 29.4102 5.15218 29.2969 5.73484C29.1836 6.31751 29.2766 7.11463 28.4633 7.01347C27.65 6.91231 25.5095 6.54005 24.5587 7.21983C23.6078 7.89961 23.4702 9.44529 23.4702 10.1332Z" stroke="white" stroke-width="0.833333" stroke-miterlimit="10"/>
<path d="M34.2334 8.75342H28.7668C28.0696 8.75342 27.5044 9.31863 27.5044 10.0159V10.2465C27.5044 10.9437 28.0696 11.5089 28.7668 11.5089H34.2334C34.9306 11.5089 35.4958 10.9437 35.4958 10.2465V10.0159C35.4958 9.31863 34.9306 8.75342 34.2334 8.75342Z" stroke="white" stroke-width="0.833333" stroke-miterlimit="10"/>
</svg>
