<svg width="48" height="20" viewBox="0 0 48 20" fill="none" xmlns="http://www.w3.org/2000/svg">
<path d="M0 0.5H44C46.2091 0.5 48 2.29086 48 4.5V15.5C48 17.7091 46.2091 19.5 44 19.5H0V0.5Z" fill="#CE7328"/>
<path d="M24.8928 10.2288C24.8928 12.9867 26.2736 13.5659 27.6944 13.2308C29.1153 12.8956 31.1628 12.7572 32.4998 12.7572C33.8369 12.7572 35.888 12.8956 37.3052 13.2308C38.726 13.5659 40.1068 12.9867 40.1068 10.2288C40.1068 7.47088 38.726 6.89161 37.3052 7.22678C35.8843 7.56196 33.8369 7.7004 32.4998 7.7004C31.1628 7.7004 29.1116 7.56196 27.6944 7.22678C26.2772 6.89161 24.8928 7.47088 24.8928 10.2288Z" stroke="white" stroke-width="0.833333" stroke-miterlimit="10"/>
<path d="M35.5675 8.85901H29.4287C28.6721 8.85901 28.0588 9.47231 28.0588 10.2289C28.0588 10.9854 28.6721 11.5987 29.4287 11.5987H35.5675C36.324 11.5987 36.9373 10.9854 36.9373 10.2289C36.9373 9.47231 36.324 8.85901 35.5675 8.85901Z" stroke="white" stroke-width="0.833333" stroke-miterlimit="10"/>
</svg>
