<svg width="48" height="20" viewBox="0 0 48 20" fill="none" xmlns="http://www.w3.org/2000/svg">
<path d="M0 0.5H44C46.2091 0.5 48 2.29086 48 4.5V15.5C48 17.7091 46.2091 19.5 44 19.5H0V0.5Z" fill="#610D00"/>
<path d="M36.622 8.93823H27.3112C26.7823 8.93823 26.3535 9.36637 26.3535 9.8945C26.3535 10.4226 26.7823 10.8508 27.3112 10.8508H36.622C37.151 10.8508 37.5798 10.4226 37.5798 9.8945C37.5798 9.36637 37.151 8.93823 36.622 8.93823Z" stroke="white" stroke-width="0.791667" stroke-miterlimit="10"/>
<path d="M39.6797 9.89593C39.6797 10.7219 39.4219 11.4892 39.2228 11.8934C39.0968 12.1424 38.8362 12.2917 38.5579 12.2742L36.9383 12.1716C36.6659 12.1541 36.4111 12.3093 36.2998 12.5612L36.0538 13.1235C35.9512 13.3608 35.714 13.5131 35.4563 13.5131H33.9421C33.6638 13.5131 33.4178 13.3373 33.327 13.0737L33.2333 12.8072C33.122 12.485 32.7822 12.3034 32.4542 12.3884C31.5287 12.6285 29.6454 13.0972 27.8764 13.4369C25.4045 13.9143 24.3208 11.9198 24.3208 9.89593C24.3208 7.8721 25.4045 5.87756 27.8735 6.35203C29.6425 6.69177 31.5258 7.16332 32.4513 7.40056C32.7793 7.48549 33.119 7.3039 33.2303 6.98173L33.3241 6.71521C33.4149 6.45161 33.6638 6.27588 33.9391 6.27588H35.4533C35.7111 6.27588 35.9454 6.42818 36.0508 6.66542L36.2968 7.22775C36.4081 7.47963 36.663 7.63486 36.9353 7.61729L38.555 7.51478C38.8332 7.49721 39.0939 7.64658 39.2198 7.89553C39.4219 8.29678 39.6767 9.06707 39.6767 9.893L39.6797 9.89593Z" stroke="white" stroke-width="0.791667" stroke-miterlimit="10"/>
</svg>
