<svg width="25" height="24" viewBox="0 0 25 24" fill="none" xmlns="http://www.w3.org/2000/svg">
<path d="M21.3039 6.72614C20.8395 7.34569 20.2781 7.88613 19.6415 8.3266C19.6415 8.48843 19.6415 8.65026 19.6415 8.82108C19.6468 11.7599 18.473 14.578 16.3834 16.6435C14.2937 18.709 11.463 19.8492 8.52586 19.8084C6.8278 19.8142 5.15146 19.4266 3.62816 18.6759C3.54602 18.64 3.49305 18.5588 3.49335 18.4691L3.49335 18.3702C3.49334 18.2411 3.59794 18.1365 3.72698 18.1364C5.39613 18.0812 7.0057 17.5025 8.32796 16.4819C6.81715 16.4515 5.45776 15.5565 4.83209 14.1804C4.80049 14.1053 4.81032 14.019 4.85804 13.9529C4.90576 13.8868 4.98447 13.8504 5.06572 13.8568C5.52489 13.9028 5.98865 13.8601 6.43166 13.7308C4.76383 13.3847 3.51057 12.0002 3.33113 10.3055C3.32475 10.2242 3.36118 10.1455 3.42725 10.0977C3.49332 10.05 3.57949 10.0401 3.65463 10.0717C4.1022 10.2692 4.58536 10.3732 5.07451 10.3773C3.61306 9.41821 2.98172 7.59384 3.53757 5.93598C3.59495 5.77488 3.73281 5.65586 3.9005 5.62267C4.06818 5.58948 4.24096 5.647 4.35533 5.7741C6.32752 7.87285 9.03724 9.1234 11.9131 9.26207C11.8395 8.96813 11.8033 8.66604 11.8053 8.363C11.8321 6.774 12.8152 5.35844 14.2943 4.77901C15.7734 4.1996 17.4558 4.57099 18.554 5.71934C19.3024 5.5767 20.026 5.32526 20.7017 4.97298C20.7512 4.94208 20.814 4.94208 20.8635 4.97298C20.8944 5.02249 20.8944 5.08528 20.8635 5.1348C20.5362 5.8843 19.9833 6.51294 19.282 6.93305C19.8962 6.86178 20.4996 6.71686 21.0792 6.50139C21.128 6.46817 21.1921 6.46817 21.2409 6.50138C21.2818 6.52008 21.3125 6.55585 21.3246 6.59916C21.3367 6.64247 21.3291 6.68892 21.3039 6.72614Z" fill="white" fill-opacity="0.7"/>
</svg>
